<?xml version="1.0"?>
<svg xmlns="http://www.w3.org/2000/svg" xmlns:xlink="http://www.w3.org/1999/xlink" xmlns:svgjs="http://svgjs.com/svgjs" version="1.1" width="512" height="512" x="0" y="0" viewBox="0 0 64 64" style="enable-background:new 0 0 512 512" xml:space="preserve" class=""><g><g xmlns="http://www.w3.org/2000/svg" id="start_up" data-name="start up"><path d="m15 18h-6a1 1 0 0 0 -1 1v6a1 1 0 0 0 1 1h6a1 1 0 0 0 1-1v-6a1 1 0 0 0 -1-1zm-1 6h-4v-4h4z" fill="#28998B" data-original="#000000" style="" class=""/><path d="m22 18a4 4 0 1 0 4 4 4 4 0 0 0 -4-4zm0 6a2 2 0 1 1 2-2 2 2 0 0 1 -2 2z" fill="#28998B" data-original="#000000" style="" class=""/><path d="m32.031 25.969a4 4 0 1 0 -4-4 4 4 0 0 0 4 4zm0-6a2 2 0 1 1 -2 2 2 2 0 0 1 2-2z" fill="#28998B" data-original="#000000" style="" class=""/><path d="m22 28a4 4 0 1 0 4 4 4 4 0 0 0 -4-4zm0 6a2 2 0 1 1 2-2 2 2 0 0 1 -2 2z" fill="#28998B" data-original="#000000" style="" class=""/><path d="m15 28h-6a1 1 0 0 0 -1 1v6a1 1 0 0 0 1 1h6a1 1 0 0 0 1-1v-6a1 1 0 0 0 -1-1zm-1 6h-4v-4h4z" fill="#28998B" data-original="#000000" style="" class=""/><path d="m22 38a4 4 0 1 0 4 4 4 4 0 0 0 -4-4zm0 6a2 2 0 1 1 2-2 2 2 0 0 1 -2 2z" fill="#28998B" data-original="#000000" style="" class=""/><path d="m15 38h-6a1 1 0 0 0 -1 1v6a1 1 0 0 0 1 1h6a1 1 0 0 0 1-1v-6a1 1 0 0 0 -1-1zm-1 6h-4v-4h4z" fill="#28998B" data-original="#000000" style="" class=""/><path d="m44 28a4 4 0 1 0 4 4 4 4 0 0 0 -4-4zm0 6a2 2 0 1 1 2-2 2 2 0 0 1 -2 2z" fill="#28998B" data-original="#000000" style="" class=""/><path d="m59.99 39.87a.982.982 0 0 0 -.54-.76l-5.49-2.75a19.062 19.062 0 0 0 -1.96-7.52v-22.84a1 1 0 0 0 -1-1h-5v-2a1 1 0 0 0 -1-1h-6a1 1 0 0 0 -1 1v2h-22v-2a1 1 0 0 0 -1-1h-6a1 1 0 0 0 -1 1v2h-5a1 1 0 0 0 -1 1v43a1 1 0 0 0 1 1h23.66l-.65 4.87a1 1 0 0 0 .24.79.981.981 0 0 0 .75.34h4a1 1 0 0 0 .92-.61l2.74-6.39h1.85a15.5 15.5 0 0 0 1.51 2.46c-.01.18-.02.36-.02.54 0 5.39 5.15 9.6 5.37 9.78a1.012 1.012 0 0 0 1.26 0c.22-.18 5.37-4.39 5.37-9.78 0-.18-.01-.36-.02-.54a15.5 15.5 0 0 0 1.51-2.46h1.85l2.74 6.39a1 1 0 0 0 .92.61h4a.981.981 0 0 0 .75-.34 1 1 0 0 0 .24-.79zm-19.99-35.87h4v4a2 2 0 0 1 -4 0zm-30 0h4v4a2 2 0 0 1 -4 0zm-6 3h4v1a4 4 0 0 0 8 0v-1h22v1a4 4 0 0 0 8 0v-1h4v7h-46zm22.92 41h-22.92v-32h46v9.37a32.8 32.8 0 0 0 -5.35-6.13 1 1 0 0 0 -1.3 0c-.37.31-8.94 7.69-9.31 17.12l-5.49 2.75a.982.982 0 0 0 -.54.76zm7.08-1a1 1 0 0 0 -.92.61l-2.74 6.39h-2.2l1.78-13.34 4.13-2.07a28.815 28.815 0 0 0 1.62 8.41zm10 12.65c-1.27-1.21-4-4.23-4-7.65 0-4.71 2.11-8 4-8s4 3.29 4 8c0 3.42-2.73 6.44-4 7.65zm5.59-11.34c-.87-3.73-3.01-6.31-5.59-6.31s-4.72 2.58-5.59 6.31a25.428 25.428 0 0 1 -2.41-11.31c0-7.37 5.99-13.72 8-15.64 2.01 1.92 8 8.27 8 15.64a25.428 25.428 0 0 1 -2.41 11.31zm8.07 5.69-2.74-6.39a1 1 0 0 0 -.92-.61h-1.67a28.815 28.815 0 0 0 1.62-8.41l4.13 2.07 1.78 13.34z" fill="#28998B" data-original="#000000" style="" class=""/><path d="m43 46h2v2h-2z" fill="#28998B" data-original="#000000" style="" class=""/><path d="m43 50h2v7h-2z" fill="#28998B" data-original="#000000" style="" class=""/></g></g></svg>
