<svg xmlns="http://www.w3.org/2000/svg" width="512" height="492" viewBox="0 0 512 492">
  <defs>
    <style>
      .cls-1 {
        fill: #059669;
        fill-rule: evenodd;
      }
    </style>
  </defs>
  <path id="Forma_1" data-name="Forma 1" class="cls-1" d="M502,0H10A10.005,10.005,0,0,0,0,10.011V112.973a10.005,10.005,0,0,0,10,10.01H502a10.005,10.005,0,0,0,10-10.01V10.011A10.005,10.005,0,0,0,502,0ZM492,102.963H20V20.021H492v82.942ZM469.408,80.226l-8.167-8.175A31.92,31.92,0,1,0,447.1,86.208l8.167,8.175A10.005,10.005,0,0,0,469.408,80.226ZM441.159,66.1a11.965,11.965,0,1,1,3.5-8.455A11.859,11.859,0,0,1,441.159,66.1ZM358.34,77.661a10.071,10.071,0,0,0-.57-1.872,10.212,10.212,0,0,0-.92-1.732,10.047,10.047,0,0,0-1.24-1.522,9.573,9.573,0,0,0-1.52-1.241,9.867,9.867,0,0,0-1.73-.921,10.1,10.1,0,0,0-1.87-.571,9.89,9.89,0,0,0-3.91,0,10.222,10.222,0,0,0-5.12,2.733,10.636,10.636,0,0,0-1.24,1.522,10.25,10.25,0,0,0-.92,1.732,10.094,10.094,0,0,0-.57,1.872,10.173,10.173,0,0,0,0,3.914,10.082,10.082,0,0,0,.57,1.871,10.57,10.57,0,0,0,.92,1.732,10.7,10.7,0,0,0,1.24,1.522,10.338,10.338,0,0,0,3.25,2.162,10.578,10.578,0,0,0,1.87.57,9.952,9.952,0,0,0,5.78-.57,10.235,10.235,0,0,0,1.73-.921,9.518,9.518,0,0,0,1.52-1.241,10.1,10.1,0,0,0,2.93-7.076A9.963,9.963,0,0,0,358.34,77.661Zm-47.714-8.053H102.794a10.01,10.01,0,0,0,0,20.02H310.626A10.01,10.01,0,0,0,310.626,69.608Zm4.194,67.646H11.181a10.005,10.005,0,0,0-10,10.01v197.4a10.005,10.005,0,0,0,10,10.01H314.82a10.006,10.006,0,0,0,10-10.01v-197.4A10.005,10.005,0,0,0,314.82,137.254ZM121.806,334.65H36.925L94.09,268.4l41.4,47.988Zm25,0,18.646-24.886H213.94a10.01,10.01,0,0,0,0-20.02H180.452l7.016-9.364h62.789l40.665,54.27H146.805Zm55.662-74.29,16.395-21.881,16.4,21.881h-32.79ZM304.82,319.833L226.862,215.788a9.994,9.994,0,0,0-16,0l-63.09,84.2-46.113-53.454a9.994,9.994,0,0,0-15.136,0L21.181,322.267V157.274H304.82V319.833ZM137.647,168.767A35.389,35.389,0,1,0,173,204.156,35.41,35.41,0,0,0,137.647,168.767Zm0,50.758A15.369,15.369,0,1,1,153,204.157,15.378,15.378,0,0,1,137.647,219.525ZM502,137.254H348.311a10.005,10.005,0,0,0-10,10.01v197.4a10.006,10.006,0,0,0,10,10.01H502a10.006,10.006,0,0,0,10-10.01v-197.4A10.005,10.005,0,0,0,502,137.254Zm-10,197.4H358.311V157.274H492V334.651Zm-23.283-160.89H381.594a10.01,10.01,0,0,0,0,20.02h87.123A10.01,10.01,0,0,0,468.717,173.761Zm0,40.175H381.594a10.01,10.01,0,0,0,0,20.02h87.123A10.01,10.01,0,0,0,468.717,213.936Zm0,40.174H381.594a10.01,10.01,0,0,0,0,20.02h87.123A10.01,10.01,0,0,0,468.717,254.11ZM391.4,302.336a10.1,10.1,0,0,0-.57-1.872,10.562,10.562,0,0,0-.92-1.731,9.973,9.973,0,0,0-12.139-3.684,10.64,10.64,0,0,0-1.73.921,9.711,9.711,0,0,0-2.76,2.763,10.644,10.644,0,0,0-.92,1.731,10.118,10.118,0,0,0-.57,1.872,9.67,9.67,0,0,0,0,3.913,10.1,10.1,0,0,0,.57,1.873,10.571,10.571,0,0,0,.92,1.732,9.745,9.745,0,0,0,2.76,2.763,10.718,10.718,0,0,0,1.73.921,10.112,10.112,0,0,0,1.869.57,9.91,9.91,0,0,0,9.02-2.734,9.859,9.859,0,0,0,2.17-3.253,10.1,10.1,0,0,0,.57-1.872A10.168,10.168,0,0,0,391.4,302.336Zm77.318-8.053H419.5a10.01,10.01,0,0,0,0,20.02h49.214A10.01,10.01,0,0,0,468.717,294.283ZM164.87,368.873H11.181a10.006,10.006,0,0,0-10,10.01V481.989a10.006,10.006,0,0,0,10,10.01H164.87a10.006,10.006,0,0,0,10-10.01V378.883A10.006,10.006,0,0,0,164.87,368.873Zm-10,103.106H21.181V388.893H154.87v83.086ZM502,368.873H199.727a10.006,10.006,0,0,0-10,10.01V481.989a10.006,10.006,0,0,0,10,10.01H502a10.006,10.006,0,0,0,10-10.01V378.883A10.006,10.006,0,0,0,502,368.873ZM492,471.979H209.727V388.893H492v83.086h0ZM255.28,428.484a10.141,10.141,0,0,0-.57-1.872,9.879,9.879,0,0,0-.92-1.731,9.711,9.711,0,0,0-2.76-2.763,9.874,9.874,0,0,0-1.73-.921,10.055,10.055,0,0,0-1.87-.581,10.286,10.286,0,0,0-3.91,0,10.543,10.543,0,0,0-1.87.581,10.151,10.151,0,0,0-1.72.921,9.522,9.522,0,0,0-1.52,1.241,10.18,10.18,0,0,0-1.25,1.522,9.879,9.879,0,0,0-.92,1.731,10.141,10.141,0,0,0-.57,1.872,10.122,10.122,0,0,0,0,3.9,10.471,10.471,0,0,0,.57,1.881,10.023,10.023,0,0,0,9.24,6.177,9.915,9.915,0,0,0,1.95-.19,10.131,10.131,0,0,0,1.87-.581,9.191,9.191,0,0,0,1.73-.921,9.711,9.711,0,0,0,2.76-2.763,10.155,10.155,0,0,0,.92-1.721,10.456,10.456,0,0,0,.57-1.882A9.626,9.626,0,0,0,255.28,428.484Zm196.037-8.058H283.388a10.01,10.01,0,0,0,0,20.02H451.317A10.01,10.01,0,0,0,451.317,420.426Z"/>
</svg>
